<svg width="349" height="348" viewBox="0 0 349 348" fill="none" xmlns="http://www.w3.org/2000/svg">
<g filter="url(#filter0_bd_45_126)">
<rect x="74.5" y="66" width="200" height="200" rx="100" fill="#18340B" fill-opacity="0.1" shape-rendering="crispEdges"/>
<g clip-path="url(#clip0_45_126)">
<path d="M233.44 200.951L240.925 162.873C241.348 160.718 239.945 158.629 237.791 158.205C235.634 157.782 233.547 159.185 233.123 161.339L226.269 196.209H216.16C217.607 195.876 218.948 195.149 220.02 194.087C221.541 192.582 222.399 190.533 222.405 188.393L222.479 161.115C222.492 156.642 218.849 153.018 214.379 153.05L206.981 153.103C202.513 153.135 198.926 156.807 198.996 161.272L199.094 167.43L206.155 159.576L198.889 172.599H182.372C179.719 172.599 177.569 174.749 177.569 177.402C177.569 180.054 179.719 182.205 182.372 182.205H201.709C203.451 182.205 205.055 181.262 205.903 179.742L213.373 166.353C212.279 171.504 210.708 176.49 208.895 181.185C208.108 183.224 206.321 184.792 203.86 185.182L186.123 185.13C184.234 185.116 182.435 186.048 181.345 187.647C180.268 189.226 180.044 191.237 180.748 193.014L193.83 226.076C195.002 229.038 198.352 230.485 201.31 229.314C204.27 228.143 205.72 224.794 204.549 221.835L202.883 217.625L208.075 204.16H223.173L232.367 227.999C232.895 229.367 234.431 230.044 235.793 229.519C237.159 228.992 237.839 227.458 237.313 226.092L228.855 204.16H229.539C231.439 204.16 233.074 202.815 233.44 200.951ZM200.005 210.353L194.595 196.681L199.801 196.696C198.57 197.372 197.734 198.68 197.734 200.184C197.734 202.379 199.514 204.159 201.71 204.159H202.394L200.005 210.353Z" fill="#072F0B"/>
<path d="M204.428 149.424C210.282 149.424 215.028 144.678 215.028 138.823C215.028 132.969 210.282 128.223 204.428 128.223C198.573 128.223 193.827 132.969 193.827 138.823C193.827 144.678 198.573 149.424 204.428 149.424Z" fill="#072F0B"/>
<path d="M146.291 182.204H165.629C168.282 182.204 170.432 180.053 170.432 177.401C170.432 174.748 168.281 172.598 165.629 172.598H149.111L141.845 159.576L148.906 167.43L149.004 161.272C149.074 156.804 145.486 153.135 141.019 153.103L133.621 153.05C129.149 153.018 125.508 156.645 125.521 161.115L125.595 188.393C125.601 190.533 126.459 192.581 127.98 194.087C129.053 195.149 130.393 195.876 131.841 196.208H121.732L114.877 161.339C114.454 159.184 112.364 157.781 110.209 158.205C108.055 158.628 106.652 160.718 107.076 162.872L114.561 200.951C114.927 202.815 116.562 204.16 118.462 204.16H119.146L110.688 226.091C110.161 227.457 110.841 228.991 112.207 229.517C113.571 230.043 115.106 229.365 115.633 227.998L124.827 204.159H139.925L145.118 217.623L143.452 221.834C142.281 224.793 143.73 228.142 146.691 229.313C149.649 230.484 152.998 229.035 154.17 226.075L167.253 193.013C167.957 191.236 167.733 189.225 166.656 187.645C165.587 186.078 163.8 185.129 161.894 185.129C161.889 185.129 161.883 185.129 161.877 185.129C143.024 185.184 144.214 185.191 144.024 185.161C141.716 184.795 139.895 183.215 139.105 181.184L134.627 166.351L142.097 179.741C142.945 181.262 144.55 182.204 146.291 182.204ZM146.291 204.16C148.487 204.16 150.267 202.38 150.267 200.184C150.267 198.68 149.431 197.372 148.2 196.696L153.405 196.681L147.995 210.353L145.606 204.16H146.291V204.16Z" fill="#072F0B"/>
<path d="M143.574 149.424C149.428 149.424 154.174 144.678 154.174 138.823C154.174 132.969 149.428 128.223 143.574 128.223C137.72 128.223 132.974 132.969 132.974 138.823C132.974 144.678 137.72 149.424 143.574 149.424Z" fill="#072F0B"/>
<path d="M171.442 104.28C160.957 104.28 152.457 110.4 152.457 117.95C152.457 122.01 154.917 125.655 158.819 128.158L156.188 133.414C155.919 133.95 156.034 134.599 156.469 135.011C156.904 135.423 157.558 135.502 158.079 135.204L165.539 130.944C167.397 131.381 169.38 131.621 171.441 131.621C181.926 131.621 190.426 125.5 190.426 117.95C190.426 110.4 181.927 104.28 171.442 104.28Z" fill="#072F0B"/>
</g>
<rect x="75" y="66.5" width="199" height="199" rx="99.5" stroke="white" stroke-opacity="0.25" shape-rendering="crispEdges"/>
</g>
<defs>
<filter id="filter0_bd_45_126" x="-25.5" y="-34" width="400" height="400" filterUnits="userSpaceOnUse" color-interpolation-filters="sRGB">
<feFlood flood-opacity="0" result="BackgroundImageFix"/>
<feGaussianBlur in="BackgroundImageFix" stdDeviation="50"/>
<feComposite in2="SourceAlpha" operator="in" result="effect1_backgroundBlur_45_126"/>
<feColorMatrix in="SourceAlpha" type="matrix" values="0 0 0 0 0 0 0 0 0 0 0 0 0 0 0 0 0 0 127 0" result="hardAlpha"/>
<feMorphology radius="10" operator="dilate" in="SourceAlpha" result="effect2_dropShadow_45_126"/>
<feOffset dy="8"/>
<feGaussianBlur stdDeviation="32"/>
<feComposite in2="hardAlpha" operator="out"/>
<feColorMatrix type="matrix" values="0 0 0 0 0 0 0 0 0 0 0 0 0 0 0 0 0 0 0.1 0"/>
<feBlend mode="normal" in2="effect1_backgroundBlur_45_126" result="effect2_dropShadow_45_126"/>
<feBlend mode="normal" in="SourceGraphic" in2="effect2_dropShadow_45_126" result="shape"/>
</filter>
<clipPath id="clip0_45_126">
<rect width="134" height="134" fill="white" transform="translate(107 100)"/>
</clipPath>
</defs>
</svg>
