<svg width="348" height="348" viewBox="0 0 348 348" fill="none" xmlns="http://www.w3.org/2000/svg">
<g filter="url(#filter0_bd_45_137)">
<rect x="74" y="66" width="200" height="200" rx="100" fill="#18340B" fill-opacity="0.1" shape-rendering="crispEdges"/>
<g clip-path="url(#clip0_45_137)">
<path d="M189.165 237.11H175.433C172.914 237.11 170.873 235.069 170.873 232.551C170.873 230.032 172.914 227.991 175.433 227.991H189.165C196.911 227.991 204.333 225.632 210.626 221.168C220.448 214.203 226.312 202.866 226.312 190.844C226.312 188.326 228.354 186.284 230.872 186.284C233.389 186.284 235.431 188.326 235.431 190.844C235.431 205.817 228.13 219.934 215.901 228.607C208.058 234.17 198.813 237.11 189.165 237.11Z" fill="#233728"/>
<path d="M116.127 202.314C113.609 202.314 111.567 200.272 111.567 197.754V132.266C111.567 106.755 132.322 86 157.834 86H189.166C205.846 86 221.3 95.0349 229.497 109.579C230.733 111.773 229.957 114.553 227.763 115.79C225.57 117.026 222.788 116.25 221.552 114.056C214.968 102.376 202.559 95.1191 189.165 95.1191H157.833C137.35 95.1191 120.686 111.783 120.686 132.266V197.754C120.686 200.273 118.645 202.314 116.127 202.314Z" fill="#233728"/>
<path d="M221.955 202.624C226.755 202.624 230.646 198.733 230.646 193.933V197.304H233.345C239.473 197.304 244.44 192.337 244.44 186.21V162.328C244.44 156.2 239.473 151.233 233.345 151.233H230.646V154.605C230.646 149.805 226.755 145.914 221.955 145.914C217.155 145.914 213.264 149.805 213.264 154.605V193.933C213.264 198.733 217.155 202.624 221.955 202.624Z" fill="#6FA420"/>
<path d="M221.955 207.183C214.649 207.183 208.704 201.239 208.704 193.932V154.605C208.704 147.298 214.648 141.354 221.955 141.354C226.289 141.354 230.144 143.446 232.563 146.673H233.346C241.978 146.673 249 153.696 249 162.327V186.21C249 194.841 241.978 201.864 233.346 201.864H232.563C230.144 205.091 226.289 207.183 221.955 207.183ZM221.955 150.474C219.677 150.474 217.823 152.327 217.823 154.605V193.933C217.823 196.211 219.676 198.065 221.955 198.065C224.234 198.065 226.087 196.211 226.087 193.933C226.087 191.415 228.128 189.373 230.646 189.373C232.677 189.373 234.398 190.702 234.988 192.536C237.799 191.806 239.88 189.247 239.88 186.21V162.328C239.88 159.292 237.799 156.732 234.988 156.002C234.398 157.837 232.677 159.165 230.646 159.165C228.128 159.165 226.087 157.123 226.087 154.605C226.086 152.327 224.233 150.474 221.955 150.474Z" fill="#233728"/>
<path d="M125.044 202.624C120.245 202.624 116.353 198.733 116.353 193.933V197.304H113.654C107.527 197.304 102.559 192.337 102.559 186.21V162.328C102.559 156.2 107.526 151.233 113.654 151.233H116.353V154.605C116.353 149.805 120.244 145.914 125.044 145.914C129.844 145.914 133.736 149.805 133.736 154.605V193.933C133.735 198.733 129.844 202.624 125.044 202.624Z" fill="#6FA420"/>
<path d="M125.044 207.183C120.71 207.183 116.855 205.091 114.436 201.864H113.654C105.022 201.864 97.9998 194.841 97.9998 186.21V162.327C97.9998 153.696 105.022 146.673 113.654 146.673H114.436C116.855 143.446 120.71 141.354 125.044 141.354C132.351 141.354 138.295 147.298 138.295 154.605V193.932C138.295 201.239 132.351 207.183 125.044 207.183ZM120.913 193.933C120.913 196.211 122.766 198.065 125.044 198.065C127.323 198.065 129.176 196.211 129.176 193.933V154.605C129.176 152.327 127.323 150.474 125.044 150.474C122.766 150.474 120.913 152.327 120.913 154.605C120.913 157.123 118.871 159.165 116.353 159.165C114.322 159.165 112.601 157.837 112.012 156.002C109.201 156.732 107.119 159.291 107.119 162.328V186.21C107.119 189.247 109.2 191.806 112.012 192.536C112.601 190.702 114.322 189.373 116.353 189.373C118.871 189.373 120.913 191.415 120.913 193.933Z" fill="#233728"/>
<path d="M178.424 242.44C184.707 242.44 189.8 237.347 189.8 231.064C189.8 224.782 184.707 219.689 178.424 219.689C172.142 219.689 167.049 224.782 167.049 231.064C167.049 237.347 172.142 242.44 178.424 242.44Z" fill="#6FA420"/>
<path d="M178.423 247C169.636 247 162.488 239.852 162.488 231.065C162.488 222.278 169.637 215.13 178.423 215.13C187.21 215.13 194.358 222.279 194.358 231.065C194.358 239.852 187.209 247 178.423 247ZM178.423 224.249C174.665 224.249 171.607 227.307 171.607 231.065C171.607 234.823 174.665 237.881 178.423 237.881C182.181 237.881 185.238 234.823 185.238 231.065C185.238 227.307 182.181 224.249 178.423 224.249Z" fill="#233728"/>
</g>
<rect x="74.5" y="66.5" width="199" height="199" rx="99.5" stroke="white" stroke-opacity="0.25" shape-rendering="crispEdges"/>
</g>
<defs>
<filter id="filter0_bd_45_137" x="-26" y="-34" width="400" height="400" filterUnits="userSpaceOnUse" color-interpolation-filters="sRGB">
<feFlood flood-opacity="0" result="BackgroundImageFix"/>
<feGaussianBlur in="BackgroundImageFix" stdDeviation="50"/>
<feComposite in2="SourceAlpha" operator="in" result="effect1_backgroundBlur_45_137"/>
<feColorMatrix in="SourceAlpha" type="matrix" values="0 0 0 0 0 0 0 0 0 0 0 0 0 0 0 0 0 0 127 0" result="hardAlpha"/>
<feMorphology radius="10" operator="dilate" in="SourceAlpha" result="effect2_dropShadow_45_137"/>
<feOffset dy="8"/>
<feGaussianBlur stdDeviation="32"/>
<feComposite in2="hardAlpha" operator="out"/>
<feColorMatrix type="matrix" values="0 0 0 0 0 0 0 0 0 0 0 0 0 0 0 0 0 0 0.1 0"/>
<feBlend mode="normal" in2="effect1_backgroundBlur_45_137" result="effect2_dropShadow_45_137"/>
<feBlend mode="normal" in="SourceGraphic" in2="effect2_dropShadow_45_137" result="shape"/>
</filter>
<clipPath id="clip0_45_137">
<rect width="161" height="161" fill="white" transform="translate(93 86)"/>
</clipPath>
</defs>
</svg>
